<svg width="28" height="25" viewBox="0 0 28 25" fill="none" xmlns="http://www.w3.org/2000/svg">
<path d="M14 9.58215C12.0965 9.58215 10.2887 8.74777 9.05371 7.29927C8.5759 6.73885 8.0821 6.5462 7.82691 6.50862C7.7115 6.49163 7.63942 6.50259 7.59044 6.51647C7.54792 6.52851 7.43136 6.56768 7.24691 6.72579L7.2469 6.7258C6.34448 7.49936 6.2968 8.60866 6.90853 9.39849L14 9.58215ZM14 9.58215C15.9035 9.58215 17.7113 8.74777 18.9463 7.29927M14 9.58215L18.9463 7.29927M18.9463 7.29927C19.4328 6.7287 19.908 6.55452 20.134 6.5215C20.2389 6.50617 20.3136 6.51452 20.3784 6.53278C20.4392 6.54988 20.5836 6.60131 20.8015 6.78294C21.6102 7.45734 21.7411 8.53489 21.0724 9.39842L18.9463 7.29927ZM13.9904 16.482C13.3443 15.8862 12.6675 15.2555 11.9917 14.6157C9.63664 12.3855 7.69882 10.4187 6.90859 9.39857L13.9904 16.482ZM13.9904 16.482C14.6366 15.8862 15.3134 15.2556 15.9891 14.6157C18.3441 12.3856 20.2819 10.4188 21.0723 9.39859L13.9904 16.482Z" stroke="#D62216" stroke-width="13" stroke-linecap="round" stroke-linejoin="round"/>
</svg>
